<?xml version="1.0" encoding="UTF-8"?>
<svg id="OBJECTS" xmlns="http://www.w3.org/2000/svg" width="465" height="411" version="1.1" viewBox="0 0 465 411">
  <defs>
    <style>
      .cls-1, .cls-2, .cls-3, .cls-4, .cls-5, .cls-6, .cls-7, .cls-8, .cls-9 {
        stroke: #9c9fad;
        stroke-miterlimit: 10;
      }

      .cls-1, .cls-3, .cls-4, .cls-6 {
        fill: none;
      }

      .cls-1, .cls-7 {
        stroke-width: .5px;
      }

      .cls-2, .cls-5, .cls-10, .cls-7, .cls-8, .cls-9 {
        fill: #d6d9e5;
      }

      .cls-3 {
        stroke-width: .2px;
      }

      .cls-4 {
        stroke-width: .6px;
      }

      .cls-11 {
        fill: #9c9fad;
      }

      .cls-11, .cls-10 {
        stroke-width: 0px;
      }

      .cls-12 {
        opacity: .3;
      }

      .cls-5 {
        stroke-width: .6px;
      }

      .cls-6 {
        stroke-width: 2.6px;
      }

      .cls-8 {
        stroke-width: .6px;
      }

      .cls-9 {
        stroke-width: .6px;
      }
    </style>
  </defs>
  <g>
    <g>

      <g class="cls-12">
        <line class="cls-3" x1="19.9" y1="8" x2="19.9" y2="403"/>
        <line class="cls-3" x1="29.8" y1="8" x2="29.8" y2="403"/>
        <line class="cls-3" x1="39.7" y1="8" x2="39.7" y2="403"/>
        <line class="cls-3" x1="49.6" y1="8" x2="49.6" y2="403"/>
        <line class="cls-3" x1="59.5" y1="8" x2="59.5" y2="403"/>
        <line class="cls-3" x1="69.4" y1="8" x2="69.4" y2="403"/>
        <line class="cls-3" x1="79.3" y1="8" x2="79.3" y2="403"/>
        <line class="cls-3" x1="89.2" y1="8" x2="89.2" y2="403"/>
        <line class="cls-3" x1="99.1" y1="8" x2="99.1" y2="403"/>
        <line class="cls-3" x1="109" y1="8" x2="109" y2="403"/>
        <line class="cls-3" x1="118.9" y1="8" x2="118.9" y2="403"/>
        <line class="cls-3" x1="128.7" y1="8" x2="128.7" y2="403"/>
        <line class="cls-3" x1="138.6" y1="8" x2="138.6" y2="403"/>
        <line class="cls-3" x1="148.5" y1="8" x2="148.5" y2="403"/>
        <line class="cls-3" x1="158.4" y1="8" x2="158.4" y2="403"/>
        <line class="cls-3" x1="168.3" y1="8" x2="168.3" y2="403"/>
        <line class="cls-3" x1="178.2" y1="8" x2="178.2" y2="403"/>
        <line class="cls-3" x1="188.1" y1="8" x2="188.1" y2="403"/>
        <line class="cls-3" x1="198" y1="8" x2="198" y2="403"/>
        <line class="cls-3" x1="207.9" y1="8" x2="207.9" y2="403"/>
        <line class="cls-3" x1="217.8" y1="8" x2="217.8" y2="403"/>
        <line class="cls-3" x1="227.7" y1="8" x2="227.7" y2="403"/>
        <line class="cls-3" x1="237.6" y1="8" x2="237.6" y2="403"/>
        <line class="cls-3" x1="247.5" y1="8" x2="247.5" y2="403"/>
        <line class="cls-3" x1="257.4" y1="8" x2="257.4" y2="403"/>
        <line class="cls-3" x1="267.3" y1="8" x2="267.3" y2="403"/>
        <line class="cls-3" x1="277.2" y1="8" x2="277.2" y2="403"/>
        <line class="cls-3" x1="287.1" y1="8" x2="287.1" y2="403"/>
        <line class="cls-3" x1="297" y1="8" x2="297" y2="403"/>
        <line class="cls-3" x1="306.9" y1="8" x2="306.9" y2="403"/>
        <line class="cls-3" x1="316.8" y1="8" x2="316.8" y2="403"/>
        <line class="cls-3" x1="326.7" y1="8" x2="326.7" y2="403"/>
        <line class="cls-3" x1="336.6" y1="8" x2="336.6" y2="403"/>
        <line class="cls-3" x1="346.5" y1="8" x2="346.5" y2="403"/>
        <line class="cls-3" x1="356.4" y1="8" x2="356.4" y2="403"/>
        <line class="cls-3" x1="366.3" y1="8" x2="366.3" y2="403"/>
        <line class="cls-3" x1="376.2" y1="8" x2="376.2" y2="403"/>
        <line class="cls-3" x1="386.1" y1="8" x2="386.1" y2="403"/>
        <line class="cls-3" x1="396" y1="8" x2="396" y2="403"/>
        <line class="cls-3" x1="405.9" y1="8" x2="405.9" y2="403"/>
        <line class="cls-3" x1="415.8" y1="8" x2="415.8" y2="403"/>
        <line class="cls-3" x1="425.6" y1="8" x2="425.6" y2="403"/>
        <line class="cls-3" x1="435.5" y1="8" x2="435.5" y2="403"/>
        <line class="cls-3" x1="445.4" y1="8" x2="445.4" y2="403"/>
      </g>
      <g class="cls-12">
        <line class="cls-3" x1="7.7" y1="386" x2="457.3" y2="386"/>
        <line class="cls-3" x1="7.7" y1="376.1" x2="457.3" y2="376.1"/>
        <line class="cls-3" x1="7.7" y1="366.2" x2="457.3" y2="366.2"/>
        <line class="cls-3" x1="7.7" y1="356.2" x2="457.3" y2="356.2"/>
        <line class="cls-3" x1="7.7" y1="346.3" x2="457.3" y2="346.3"/>
        <line class="cls-3" x1="7.7" y1="336.4" x2="457.3" y2="336.4"/>
        <line class="cls-3" x1="7.7" y1="326.5" x2="457.3" y2="326.5"/>
        <line class="cls-3" x1="7.7" y1="316.6" x2="457.3" y2="316.6"/>
        <line class="cls-3" x1="7.7" y1="306.7" x2="457.3" y2="306.7"/>
        <line class="cls-3" x1="7.7" y1="296.8" x2="457.3" y2="296.8"/>
        <line class="cls-3" x1="7.7" y1="286.8" x2="457.3" y2="286.8"/>
        <line class="cls-3" x1="7.7" y1="276.9" x2="457.3" y2="276.9"/>
        <line class="cls-3" x1="7.7" y1="267" x2="457.3" y2="267"/>
        <line class="cls-3" x1="7.7" y1="257.1" x2="457.3" y2="257.1"/>
        <line class="cls-3" x1="7.7" y1="247.2" x2="457.3" y2="247.2"/>
        <line class="cls-3" x1="7.7" y1="237.3" x2="457.3" y2="237.3"/>
        <line class="cls-3" x1="7.7" y1="227.4" x2="457.3" y2="227.4"/>
        <line class="cls-3" x1="7.7" y1="217.4" x2="457.3" y2="217.4"/>
        <line class="cls-3" x1="7.7" y1="207.5" x2="457.3" y2="207.5"/>
        <line class="cls-3" x1="7.7" y1="197.6" x2="457.3" y2="197.6"/>
        <line class="cls-3" x1="7.7" y1="187.7" x2="457.3" y2="187.7"/>
        <line class="cls-3" x1="7.7" y1="177.8" x2="457.3" y2="177.8"/>
        <line class="cls-3" x1="7.7" y1="167.9" x2="457.3" y2="167.9"/>
        <line class="cls-3" x1="7.7" y1="157.9" x2="457.3" y2="157.9"/>
        <line class="cls-3" x1="7.7" y1="148" x2="457.3" y2="148"/>
        <line class="cls-3" x1="7.7" y1="138.1" x2="457.3" y2="138.1"/>
        <line class="cls-3" x1="7.7" y1="128.2" x2="457.3" y2="128.2"/>
        <line class="cls-3" x1="7.7" y1="118.3" x2="457.3" y2="118.3"/>
        <line class="cls-3" x1="7.7" y1="108.4" x2="457.3" y2="108.4"/>
        <line class="cls-3" x1="7.7" y1="98.5" x2="457.3" y2="98.5"/>
        <line class="cls-3" x1="7.7" y1="88.5" x2="457.3" y2="88.5"/>
        <line class="cls-3" x1="7.7" y1="78.6" x2="457.3" y2="78.6"/>
        <line class="cls-3" x1="7.7" y1="68.7" x2="457.3" y2="68.7"/>
        <line class="cls-3" x1="7.7" y1="58.8" x2="457.3" y2="58.8"/>
        <line class="cls-3" x1="7.7" y1="48.9" x2="457.3" y2="48.9"/>
        <line class="cls-3" x1="7.7" y1="39" x2="457.3" y2="39"/>
        <line class="cls-3" x1="7.7" y1="29.1" x2="457.3" y2="29.1"/>
        <line class="cls-3" x1="7.7" y1="19.1" x2="457.3" y2="19.1"/>
      </g>
    </g>
    <path class="cls-11" d="M457.8,403.5H7.2V7.5h450.5v396ZM8.2,402.5h448.5V8.5H8.2v394Z"/>
  </g>
  <path class="cls-2" d="M326.8,64.4h0c0-5-4-9-9-9h-34.4c-5,0-9,4-9,9h0"/>
  <path class="cls-2" d="M226.3,358.5h0c0,5,4,9,9,9h34.4c5,0,9-4,9-9h0"/>
  <path class="cls-2" d="M48.4,106h0c-5,0-9,4-9,9v34.4c0,5,4,9,9,9h0"/>
  <polygon class="cls-6" points="177.5 257 48.6 257 48.6 64.9 414.8 64.9 414.8 257 414.8 357.1 207.1 357.1 207.1 293.2 177.5 257"/>
  <g>
    <path class="cls-8" d="M61.4,78.2h47.1v54.7c0,1.3-1,2.3-2.3,2.3h-42.5c-1.3,0-2.3-1-2.3-2.3v-54.7h0Z"/>
    <rect class="cls-5" x="64.1" y="81.5" width="19.3" height="12" rx="1.9" ry="1.9"/>
    <rect class="cls-5" x="86.5" y="81.5" width="19.3" height="12" rx="1.9" ry="1.9"/>
    <line class="cls-5" x1="61.4" y1="98.1" x2="108.5" y2="98.1"/>
    <line class="cls-5" x1="61.4" y1="101.6" x2="88.3" y2="101.6"/>
    <rect class="cls-5" x="59" y="74.3" width="52.1" height="3.9"/>
    <line class="cls-5" x1="88.3" y1="101.6" x2="108.4" y2="110.7"/>
  </g>
  <g>
    <path class="cls-7" d="M349.9,93.6h47.1v54.7c0,1.3-1,2.3-2.3,2.3h-42.5c-1.3,0-2.3-1-2.3-2.3v-54.7h0Z" transform="translate(495.6 -251.4) rotate(90)"/>
    <rect class="cls-7" x="383.1" y="104.9" width="19.3" height="12" rx="1.9" ry="1.9" transform="translate(503.7 -281.9) rotate(90)"/>
    <rect class="cls-7" x="383.1" y="127.3" width="19.3" height="12" rx="1.9" ry="1.9" transform="translate(526 -259.5) rotate(90)"/>
    <line class="cls-7" x1="382.1" y1="98.6" x2="382.1" y2="145.6"/>
    <line class="cls-7" x1="378.7" y1="98.6" x2="378.7" y2="125.4"/>
    <rect class="cls-7" x="378" y="120.2" width="52.1" height="3.9" transform="translate(526.2 -281.9) rotate(90)"/>
    <line class="cls-7" x1="378.6" y1="125.4" x2="369.5" y2="145.5"/>
  </g>
  <g>
    <path class="cls-7" d="M65.9,233.8c.6,0,1.2.1,1.8.3l3.1,1.1c2.2.8,3.6,2.8,3.6,5.1s-1.4,4.2-3.4,5.1l-3.1,1.2c-.7.3-1.3.4-2,.4-3.1,0-5.6-2.5-5.6-5.6v-2c0-1.5.6-2.9,1.7-4,1.1-1,2.4-1.6,3.9-1.6h0Z"/>
    <path class="cls-7" d="M73.3,240.3h0c0-1.8-1.1-3.4-2.8-4l-3.1-1.1c-2.9-1-5.9,1.1-5.9,4.2v2c0,3.1,3.1,5.2,6,4.1l3.1-1.2c1.6-.6,2.7-2.2,2.7-4Z"/>
    <path class="cls-7" d="M60.5,234.3h0c.3,0,.6.3.6.6v12.1c0,.3-.3.6-.6.6h0c-.3,0-.6-.3-.6-.6v-12.1c0-.3.3-.6.6-.6Z"/>
    <path class="cls-7" d="M56.7,234.3h0c1.7,0,3.2,1.4,3.2,3.2v6.4c0,1.7-1.4,3.2-3.2,3.2h0c-1.7,0-3.2-1.4-3.2-3.2v-6.4c0-1.7,1.4-3.2,3.2-3.2Z"/>
    <path class="cls-7" d="M54.9,240.9c0-.7.6-1.2,1.2-1.2s1.2.6,1.2,1.2-.6,1.2-1.2,1.2-1.2-.6-1.2-1.2Z"/>
  </g>
  <g>
    <path class="cls-7" d="M321,195.3c.6,0,1.2.1,1.8.3l3.1,1.1c2.2.8,3.6,2.8,3.6,5.1s-1.4,4.2-3.4,5.1l-3.1,1.2c-.7.3-1.3.4-2,.4-3.1,0-5.6-2.5-5.6-5.6v-2c0-1.5.6-2.9,1.7-4,1.1-1,2.4-1.6,3.9-1.6h0Z"/>
    <path class="cls-7" d="M328.4,201.8h0c0-1.8-1.1-3.4-2.8-4l-3.1-1.1c-2.9-1-5.9,1.1-5.9,4.2v2c0,3.1,3.1,5.2,6,4.1l3.1-1.2c1.6-.6,2.7-2.2,2.7-4Z"/>
    <path class="cls-7" d="M315.6,195.8h0c.3,0,.6.3.6.6v12.1c0,.3-.3.6-.6.6h0c-.3,0-.6-.3-.6-.6v-12.1c0-.3.3-.6.6-.6Z"/>
    <path class="cls-7" d="M311.8,195.8h0c1.7,0,3.2,1.4,3.2,3.2v6.4c0,1.7-1.4,3.2-3.2,3.2h0c-1.7,0-3.2-1.4-3.2-3.2v-6.4c0-1.7,1.4-3.2,3.2-3.2Z"/>
    <path class="cls-7" d="M310,202.4c0-.7.6-1.2,1.2-1.2s1.2.6,1.2,1.2-.6,1.2-1.2,1.2-1.2-.6-1.2-1.2Z"/>
  </g>
  <rect class="cls-7" x="116.4" y="74.3" width="16.2" height="11.1" transform="translate(248.9 159.8) rotate(180)"/>
  <rect class="cls-7" x="392.3" y="77.6" width="16.2" height="11.1" transform="translate(317.2 483.5) rotate(-90)"/>
  <rect class="cls-7" x="392.3" y="154.6" width="16.2" height="11.1" transform="translate(240.2 560.5) rotate(-90)"/>
  <g>
    <rect class="cls-7" x="388.9" y="203.7" width="19.8" height="41.7" rx="9.6" ry="9.6" transform="translate(797.6 449.2) rotate(-180)"/>
    <rect class="cls-7" x="384.7" y="199.5" width="28.2" height="51" transform="translate(797.5 450) rotate(180)"/>
    <path class="cls-7" d="M398.9,242.9h0c.5,0,.9.4.9.9v4.8c0,.5-.4.9-.9.9h0c-.5,0-.9-.4-.9-.9v-4.8c0-.5.4-.9.9-.9Z"/>
    <path class="cls-7" d="M407,245.2h0c.8,0,1.4.6,1.4,1.4h0c0,.8-.6,1.4-1.4,1.4h0c-.8,0-1.4-.6-1.4-1.4h0c0-.8.6-1.4,1.4-1.4Z"/>
    <path class="cls-7" d="M390.8,245.2h0c.8,0,1.4.6,1.4,1.4h0c0,.8-.6,1.4-1.4,1.4h0c-.8,0-1.4-.6-1.4-1.4h0c0-.8.6-1.4,1.4-1.4Z"/>
    <path class="cls-7" d="M398.7,238.9h0c.8,0,1.4.6,1.4,1.4h0c0,.8-.6,1.4-1.4,1.4h0c-.8,0-1.4-.6-1.4-1.4h0c0-.8.6-1.4,1.4-1.4Z"/>
  </g>
  <g>
    <rect class="cls-7" x="52.3" y="181.2" width="13.4" height="44.8"/>
    <rect class="cls-7" x="52.2" y="185" width="11" height="15.1" rx="5.1" ry="5.1"/>
    <path class="cls-9" d="M57.7,195.1h0c-1,0-1.9-.8-1.9-1.9v-1.4c0-1,.8-1.9,1.9-1.9h0c1,0,1.9.8,1.9,1.9v1.4c0,1-.8,1.9-1.9,1.9Z"/>
    <path class="cls-10" d="M58.6,192.5c0,.5-.4.9-.9.9s-.9-.4-.9-.9.4-.9.9-.9.9.4.9.9Z"/>
    <rect class="cls-7" x="52.2" y="206.8" width="11" height="15.1" rx="5.1" ry="5.1"/>
    <path class="cls-9" d="M57.7,216.9h0c-1,0-1.9-.8-1.9-1.9v-1.4c0-1,.8-1.9,1.9-1.9h0c1,0,1.9.8,1.9,1.9v1.4c0,1-.8,1.9-1.9,1.9Z"/>
    <path class="cls-10" d="M58.6,214.3c0,.5-.4.9-.9.9s-.9-.4-.9-.9.4-.9.9-.9.9.4.9.9Z"/>
    <rect class="cls-11" x="51.8" y="214" width="3.5" height="1.2"/>
    <rect class="cls-11" x="51.8" y="191.7" width="3.5" height="1.2"/>
  </g>
  <g>
    <rect class="cls-7" x="320.4" y="221.4" width="13.4" height="44.8" transform="translate(83.4 570.9) rotate(-90)"/>
    <rect class="cls-7" x="310.5" y="237.5" width="11" height="15.1" rx="5.1" ry="5.1" transform="translate(70.9 561.1) rotate(-90)"/>
    <path class="cls-7" d="M318.6,245.1h0c0,1-.8,1.9-1.9,1.9h-1.4c-1,0-1.9-.8-1.9-1.9h0c0-1,.8-1.9,1.9-1.9h1.4c1,0,1.9.8,1.9,1.9Z"/>
    <path class="cls-7" d="M316,244.2c.5,0,.9.4.9.9s-.4.9-.9.9-.9-.4-.9-.9.4-.9.9-.9Z"/>
    <rect class="cls-7" x="332.3" y="237.5" width="11" height="15.1" rx="5.1" ry="5.1" transform="translate(92.7 582.9) rotate(-90)"/>
    <path class="cls-7" d="M340.4,245.1h0c0,1-.8,1.9-1.9,1.9h-1.4c-1,0-1.9-.8-1.9-1.9h0c0-1,.8-1.9,1.9-1.9h1.4c1,0,1.9.8,1.9,1.9Z"/>
    <path class="cls-7" d="M337.8,244.2c.5,0,.9.4.9.9s-.4.9-.9.9-.9-.4-.9-.9.4-.9.9-.9Z"/>
    <rect class="cls-11" x="336.3" y="248.7" width="3.5" height="1.2" transform="translate(88.8 587.3) rotate(-90)"/>
    <rect class="cls-11" x="314" y="248.7" width="3.5" height="1.2" transform="translate(66.5 565) rotate(-90)"/>
  </g>
  <g>
    <path class="cls-7" d="M231.7,89.6h0c2,0,3.6-1.6,3.6-3.6v-2c0-5.2-4.2-9.4-9.4-9.4h-39.9c-5.2,0-9.4,4.2-9.4,9.4v1.6c0,2.4,2,4.4,4.4,4.4h0"/>
    <rect class="cls-7" x="214.7" y="79.1" width="16.9" height="15.7" rx="3.7" ry="3.7" transform="translate(446.2 173.9) rotate(180)"/>
    <rect class="cls-7" x="197.8" y="79.1" width="16.9" height="15.7" rx="3.7" ry="3.7" transform="translate(412.5 173.9) rotate(180)"/>
    <rect class="cls-7" x="181" y="79.1" width="16.9" height="15.7" rx="3.7" ry="3.7" transform="translate(378.8 173.9) rotate(180)"/>
  </g>
  <g>
    <rect class="cls-7" x="190.6" y="106.1" width="28.7" height="12.6" transform="translate(409.9 224.8) rotate(180)"/>
    <rect class="cls-7" x="216" y="115.3" width="3.3" height="3.3" transform="translate(435.3 234) rotate(180)"/>
    <rect class="cls-7" x="190.6" y="115.3" width="3.3" height="3.3" transform="translate(384.6 234) rotate(180)"/>
    <rect class="cls-7" x="216" y="106.1" width="3.3" height="3.3" transform="translate(435.3 215.5) rotate(180)"/>
    <rect class="cls-7" x="190.6" y="106.1" width="3.3" height="3.3" transform="translate(384.6 215.5) rotate(180)"/>
  </g>
  <g>
    <path class="cls-7" d="M242.2,121.9h0c0,1.2-1,2.1-2.1,2.1h-9.1c-1.2,0-2.1-1-2.1-2.1h0c0-1.2,1-2.1,2.1-2.1h9.1c1.2,0,2.1,1,2.1,2.1Z"/>
    <path class="cls-7" d="M242.1,101.9h0c0,1.2-1,2.1-2.1,2.1h-9.1c-1.2,0-2.1-1-2.1-2.1h0c0-1.2,1-2.1,2.1-2.1h9.1c1.2,0,2.1,1,2.1,2.1Z"/>
    <rect class="cls-7" x="227.4" y="104.5" width="15.5" height="14.4" rx="3.4" ry="3.4" transform="translate(123.5 346.9) rotate(-90)"/>
    <rect class="cls-7" x="234.3" y="109.8" width="20.3" height="3.9" rx="1.8" ry="1.8" transform="translate(132.7 356.2) rotate(-90)"/>
  </g>
  <g>
    <path class="cls-7" d="M168.3,101.9h0c0-1.2,1-2.1,2.1-2.1h9.1c1.2,0,2.1,1,2.1,2.1h0c0,1.2-1,2.1-2.1,2.1h-9.1c-1.2,0-2.1-1-2.1-2.1Z"/>
    <path class="cls-7" d="M168.4,121.9h0c0-1.2,1-2.1,2.1-2.1h9.1c1.2,0,2.1,1,2.1,2.1h0c0,1.2-1,2.1-2.1,2.1h-9.1c-1.2,0-2.1-1-2.1-2.1Z"/>
    <rect class="cls-7" x="167.6" y="104.9" width="15.5" height="14.4" rx="3.4" ry="3.4" transform="translate(287.4 -63.2) rotate(90)"/>
    <rect class="cls-7" x="155.9" y="110.1" width="20.3" height="3.9" rx="1.8" ry="1.8" transform="translate(278.1 -54) rotate(90)"/>
  </g>
  <g>
    <path class="cls-7" d="M237.9,348.9h0c-1.2,0-2.1-1-2.1-2.1v-9.1c0-1.2,1-2.1,2.1-2.1h0c1.2,0,2.1,1,2.1,2.1v9.1c0,1.2-1,2.1-2.1,2.1Z"/>
    <path class="cls-7" d="M257.9,348.8h0c-1.2,0-2.1-1-2.1-2.1v-9.1c0-1.2,1-2.1,2.1-2.1h0c1.2,0,2.1,1,2.1,2.1v9.1c0,1.2-1,2.1-2.1,2.1Z"/>
    <rect class="cls-7" x="240.3" y="334.7" width="15.5" height="14.4" rx="3.4" ry="3.4"/>
    <rect class="cls-7" x="237.9" y="349.2" width="20.3" height="3.9" rx="1.8" ry="1.8"/>
  </g>
  <g>
    <path class="cls-7" d="M215.7,306.4h0c0-1.2,1-2.1,2.1-2.1h9.1c1.2,0,2.1,1,2.1,2.1h0c0,1.2-1,2.1-2.1,2.1h-9.1c-1.2,0-2.1-1-2.1-2.1Z"/>
    <path class="cls-7" d="M215.8,326.4h0c0-1.2,1-2.1,2.1-2.1h9.1c1.2,0,2.1,1,2.1,2.1h0c0,1.2-1,2.1-2.1,2.1h-9.1c-1.2,0-2.1-1-2.1-2.1Z"/>
    <rect class="cls-7" x="214.9" y="309.4" width="15.5" height="14.4" rx="3.4" ry="3.4" transform="translate(539.3 93.9) rotate(90)"/>
    <rect class="cls-7" x="203.3" y="314.6" width="20.3" height="3.9" rx="1.8" ry="1.8" transform="translate(530 103.2) rotate(90)"/>
  </g>
  <rect class="cls-7" x="363" y="303.9" width="22.1" height="82.3" transform="translate(719.1 -29) rotate(90)"/>
  <g>
    <rect class="cls-4" x="387.2" y="331.9" width="15.9" height="27.8" transform="translate(740.9 -49.4) rotate(90)"/>
    <path class="cls-1" d="M404.1,344.9c-1.6,0-2.9-1.3-2.9-2.9s1.3-2.9,2.9-2.9,2.9,1.3,2.9,2.9-1.3,2.9-2.9,2.9Z"/>
    <path class="cls-1" d="M404.1,352.7c-1.6,0-2.9-1.3-2.9-2.9s1.3-2.9,2.9-2.9,2.9,1.3,2.9,2.9-1.3,2.9-2.9,2.9Z"/>
    <path class="cls-1" d="M395.6,344.9c-1.6,0-2.9-1.3-2.9-2.9s1.3-2.9,2.9-2.9,2.9,1.3,2.9,2.9-1.3,2.9-2.9,2.9Z"/>
    <path class="cls-1" d="M395.6,352.7c-1.6,0-2.9-1.3-2.9-2.9s1.3-2.9,2.9-2.9,2.9,1.3,2.9,2.9-1.3,2.9-2.9,2.9Z"/>
    <rect class="cls-1" x="378.7" y="343.8" width="13.1" height="3.9" transform="translate(731.1 -39.5) rotate(90)"/>
    <line class="cls-1" x1="404.2" y1="339.1" x2="404.2" y2="345"/>
    <line class="cls-1" x1="407.1" y1="342" x2="401.2" y2="342"/>
    <line class="cls-1" x1="404.1" y1="347" x2="404.1" y2="352.9"/>
    <line class="cls-1" x1="407.1" y1="349.7" x2="401.2" y2="349.7"/>
    <line class="cls-1" x1="395.6" y1="346.8" x2="395.6" y2="352.7"/>
    <line class="cls-1" x1="398.5" y1="349.7" x2="392.6" y2="349.7"/>
    <line class="cls-1" x1="395.6" y1="339.1" x2="395.6" y2="345"/>
    <line class="cls-1" x1="398.5" y1="342" x2="392.6" y2="342"/>
  </g>
  <rect class="cls-1" x="349.5" y="330.6" width="15.8" height="34.5" transform="translate(705.3 -9.5) rotate(90)"/>
  <rect class="cls-1" x="348.1" y="327.6" width="18.6" height="39.2" transform="translate(704.6 -10.2) rotate(90)"/>
  <path class="cls-1" d="M365.1,348.9c-.8,0-1.5-.7-1.5-1.5s.7-1.5,1.5-1.5,1.5.7,1.5,1.5-.7,1.5-1.5,1.5Z"/>
  <path class="cls-1" d="M350.2,348.9c-.8,0-1.5-.7-1.5-1.5s.7-1.5,1.5-1.5,1.5.7,1.5,1.5-.7,1.5-1.5,1.5Z"/>
  <path class="cls-11" d="M356.6,355.2v-5.6c0-.4.4-.8.8-.8h0c.4,0,.8.4.8.8v5.6c0,.4-.4.8-.8.8h0c-.4,0-.8-.4-.8-.8Z"/>
  <g>
    <rect class="cls-7" x="292.5" y="271.3" width="7.5" height="68.3" transform="translate(592.5 611) rotate(180)"/>
    <path class="cls-7" d="M301.8,325.6c0-2.1,1.7-3.8,3.8-3.8s3.8,1.7,3.8,3.8-1.7,3.8-3.8,3.8-3.8-1.7-3.8-3.8Z"/>
    <path class="cls-7" d="M301.8,312.7c0-2.1,1.7-3.8,3.8-3.8s3.8,1.7,3.8,3.8-1.7,3.8-3.8,3.8-3.8-1.7-3.8-3.8Z"/>
    <path class="cls-7" d="M301.8,297.6c0-2.1,1.7-3.8,3.8-3.8s3.8,1.7,3.8,3.8-1.7,3.8-3.8,3.8-3.8-1.7-3.8-3.8Z"/>
    <path class="cls-7" d="M301.8,284.8c0-2.1,1.7-3.8,3.8-3.8s3.8,1.7,3.8,3.8-1.7,3.8-3.8,3.8-3.8-1.7-3.8-3.8Z"/>
  </g>
  <rect class="cls-11" x="140.5" y="63.9" width="3" height="113.9"/>
  <rect class="cls-11" x="269" y="63.9" width="3.3" height="113.9"/>
  <rect class="cls-11" x="325.2" y="151.1" width="3.3" height="50.3" transform="translate(503.1 -150.6) rotate(90)"/>
  <rect class="cls-11" x="394.2" y="156.5" width="3.3" height="39.4" transform="translate(572.1 -219.6) rotate(90)"/>
  <rect class="cls-11" x="357" y="195.4" width="3.3" height="113.9" transform="translate(611 -106.4) rotate(90)"/>
  <rect class="cls-11" x="111.8" y="174.8" width="3.3" height="56.3"/>
  <rect class="cls-11" x="301.8" y="174.8" width="3.3" height="79.2"/>
  <rect class="cls-11" x="80.2" y="142.9" width="3.3" height="66.8" transform="translate(258.2 94.5) rotate(90)"/>
  <g>
    <rect class="cls-7" x="68.4" y="164.9" width="40.9" height="10.2"/>
    <rect class="cls-7" x="71.7" y="167.3" width="34.2" height="3.4"/>
    <rect class="cls-7" x="85.5" y="170.8" width="6.5" height="2.3"/>
  </g>
  <g>
    <rect class="cls-7" x="256.5" y="117.4" width="48.9" height="10.2" transform="translate(403.5 -158.4) rotate(90)"/>
    <rect class="cls-7" x="262.7" y="119.6" width="38.3" height="3.4" transform="translate(403.2 -160.6) rotate(90)"/>
    <rect class="cls-7" x="275.6" y="120" width="6.5" height="2.3" transform="translate(400.1 -157.7) rotate(90)"/>
  </g>
  <polygon class="cls-7" points="111.8 207.9 93.8 207.9 86.1 201.3 86.1 178.1 111.8 178.1 111.8 207.9"/>
  <path class="cls-1" d="M101.7,191.3c0,.8-.6,1.4-1.4,1.4s-1.4-.6-1.4-1.4.6-1.4,1.4-1.4,1.4.6,1.4,1.4Z"/>
  <g>
    <g>
      <path class="cls-7" d="M178.7,193.2v12.3c0,.8-.5,1.4-1.3,1.4h0c-.8,0-1.4-.6-1.4-1.4v-12.3c0-.8.5-1.4,1.3-1.4h0c.8,0,1.4.6,1.4,1.4Z"/>
      <rect class="cls-7" x="177.6" y="194" width="13" height="10.5" rx="1" ry="1" transform="translate(-14.2 384.5) rotate(-90.3)"/>
    </g>
    <g>
      <path class="cls-7" d="M197.2,171.6l-10.3,6.7c-.6.4-1.5.2-1.9-.4h0c-.4-.6-.2-1.5.4-1.9l10.3-6.7c.6-.4,1.5-.2,1.9.4h0c.4.6.2,1.5-.4,1.9Z"/>
      <rect class="cls-7" x="188.5" y="174.2" width="13" height="10.5" rx="1" ry="1" transform="translate(-66.4 135.7) rotate(-33.1)"/>
    </g>
    <g>
      <path class="cls-7" d="M229.1,178l-10.8-6c-.7-.4-.9-1.2-.5-1.9h0c.4-.7,1.2-.9,1.9-.5l10.8,6c.7.4.9,1.2.5,1.9h0c-.4.7-1.2.9-1.9.5Z"/>
      <path class="cls-7" d="M215.6,174.5h11c.6,0,1,.5,1,1v8.5c0,.6-.5,1-1,1h-11c-.6,0-1-.5-1-1v-8.5c0-.6.5-1,1-1Z" transform="translate(115.1 -84.8) rotate(29.1)"/>
    </g>
    <g>
      <path class="cls-7" d="M217,226.3l11.1-5.3c.7-.3,1.5,0,1.8.6h0c.3.7,0,1.5-.6,1.8l-11.1,5.3c-.7.3-1.5,0-1.8-.6h0c-.3-.7,0-1.5.6-1.8Z"/>
      <rect class="cls-7" x="213.6" y="213.5" width="13" height="10.5" rx="1" ry="1" transform="translate(513.1 321.3) rotate(154.5)"/>
    </g>
    <g>
      <path class="cls-7" d="M188.2,221.3l10.6,6.2c.7.4.9,1.2.5,1.9h0c-.4.7-1.2.9-1.9.5l-10.6-6.2c-.7-.4-.9-1.2-.5-1.9h0c.4-.7,1.2-.9,1.9-.5Z"/>
      <rect class="cls-7" x="189.7" y="214.4" width="13" height="10.5" rx="1" ry="1" transform="translate(254.2 508.5) rotate(-149.6)"/>
    </g>
    <g>
      <path class="cls-7" d="M237.9,206.3v-12.3c0-.8.5-1.4,1.3-1.4h0c.8,0,1.4.6,1.4,1.4v12.3c0,.8-.5,1.4-1.3,1.4h0c-.8,0-1.4-.6-1.4-1.4Z"/>
      <rect class="cls-7" x="225.9" y="194.9" width="13" height="10.5" rx="1" ry="1" transform="translate(431.3 -33.3) rotate(89.7)"/>
    </g>
    <circle class="cls-7" cx="208.1" cy="199.3" r="24.2"/>
  </g>
  <rect class="cls-7" x="212.3" y="335" width="17.4" height="14.5"/>
  <rect class="cls-7" x="128.6" y="241.4" width="45.8" height="14.4"/>
  <circle class="cls-1" cx="150.1" cy="249.3" r="3.5"/>
  <rect class="cls-7" x="143.5" y="132.4" width="10.8" height="39.6"/>
  <rect class="cls-7" x="332.1" y="65.1" width="45.2" height="10.3"/>
  <rect class="cls-7" x="386.6" y="254" width="26.9" height="26.4"/>
  <polyline class="cls-1" points="177.5 257 171.4 262.5 201.3 298.3 207.1 293.2"/>
</svg>